<?xml version="1.0" encoding="UTF-8"?>
<svg version="1.1" xmlns="http://www.w3.org/2000/svg" width="512" height="512">
<path d="M0 0 C3.3383532 4.1714323 4.37208433 8.77552981 5.72265625 13.88671875 C6.01785156 14.95647949 6.31304687 16.02624023 6.6171875 17.12841797 C7.48670618 20.31331614 8.32731855 23.50455699 9.16015625 26.69921875 C9.39718262 27.58722168 9.63420898 28.47522461 9.87841797 29.39013672 C10.49035846 31.69738579 11.08165603 34.00838468 11.66015625 36.32421875 C11.91841187 37.32424927 11.91841187 37.32424927 12.18188477 38.34448242 C13.14740121 42.43487623 13.46765085 45.67529141 12.16015625 49.69921875 C7.95621325 53.96506029 3.30849095 55.11209249 -2.30810547 56.58740234 C-3.23504652 56.84120855 -4.16198757 57.09501476 -5.11701775 57.35651207 C-8.02165433 58.14890631 -10.9304297 58.92457512 -13.83984375 59.69921875 C-15.59455019 60.17529793 -17.34897445 60.65241859 -19.10308838 61.13067627 C-24.51319727 62.60112669 -29.93011983 64.04548192 -35.34765625 65.48828125 C-37.37499083 66.02965958 -39.40228253 66.57119847 -41.42953491 67.11288452 C-46.82212431 68.55331508 -52.21530618 69.99151504 -57.60861206 71.42926025 C-63.30258432 72.94759073 -68.9959828 74.46806992 -74.68945312 75.98828125 C-87.07244339 79.29422932 -99.45621123 82.59725744 -111.84022522 85.89936829 C-116.31507377 87.09258991 -120.78985964 88.28604651 -125.26464844 89.47949219 C-136.51131392 92.47892921 -147.7580684 95.47803231 -159.0051651 98.47585201 C-195.23537933 108.13285159 -231.45736464 117.82063345 -267.67977142 127.50686836 C-283.44970748 131.72388304 -299.22019014 135.93884798 -314.99106216 140.15236092 C-321.81333203 141.9751249 -328.63552664 143.79817048 -335.45772362 145.62120724 C-340.858279 147.06432183 -346.25888221 148.50725682 -351.65960693 149.94973755 C-356.72019909 151.30137465 -361.78065207 152.65353169 -366.84101486 154.00602722 C-368.6595301 154.49197333 -370.47809109 154.97774828 -372.29671097 155.46330261 C-385.23171383 158.9169624 -398.15763984 162.40383322 -411.08166504 165.89830017 C-412.81012331 166.36556454 -414.53858424 166.83281909 -416.26704788 167.30006361 C-420.45801041 168.43300228 -424.64893712 169.56607333 -428.83984375 170.69921875 C-427.40806422 170.70068396 -427.40806422 170.70068396 -425.94735986 170.70217878 C-369.41447264 170.7602957 -312.88162362 170.83417118 -256.34878423 170.92820503 C-249.56561221 170.93948377 -242.78243996 170.95061548 -235.99926758 170.96166992 C-234.98674493 170.96332377 -234.98674493 170.96332377 -233.95376727 170.96501103 C-212.06590401 171.0006936 -190.17804228 171.0266635 -168.29016037 171.04760844 C-145.16447791 171.06979051 -122.0388336 171.10301469 -98.91318196 171.14792031 C-85.05554282 171.17447117 -71.19795014 171.19214123 -57.34028681 171.19856479 C-47.84636292 171.20380817 -38.35249756 171.21998972 -28.858605 171.24488441 C-23.37556054 171.25893543 -17.89262095 171.26805681 -12.40955734 171.26422691 C-7.39394271 171.26082963 -2.37855248 171.27110647 2.63701615 171.29245427 C4.45538956 171.29774512 6.27378614 171.29793318 8.09215947 171.29261438 C10.55699859 171.28613679 13.02108904 171.29794972 15.48586559 171.31445789 C16.19789466 171.3081812 16.90992374 171.3019045 17.64352944 171.2954376 C23.15647334 171.3638144 26.30514432 172.84420682 30.16015625 176.69921875 C31.25764028 179.86823423 31.28731476 182.86959061 31.29158401 186.20344353 C31.29542516 187.3293609 31.2992663 188.45527828 31.30322385 189.61531436 C31.30235737 190.85245563 31.30149088 192.0895969 31.30059814 193.36422729 C31.30505483 195.33535954 31.30505483 195.33535954 31.30960155 197.34631264 C31.3176707 200.99700224 31.31946107 204.64767218 31.32019901 208.29836965 C31.32204968 212.23437989 31.329597 216.17037993 31.33633423 220.10638428 C31.3499167 228.71371238 31.35594192 237.32103582 31.36034489 245.92837286 C31.36310702 251.30148384 31.36734428 256.67459302 31.37184906 262.04770279 C31.38404079 276.92101109 31.39434083 291.79431796 31.39772415 306.66763115 C31.39794372 307.61955212 31.39816328 308.57147308 31.3983895 309.55224014 C31.39860778 310.50644824 31.39882606 311.46065633 31.39905095 312.44377983 C31.39949442 314.37739619 31.39994098 316.31101255 31.40039062 318.24462891 C31.40061205 319.20377099 31.40083348 320.16291308 31.40106162 321.15112008 C31.40501115 336.69883016 31.42247031 352.24649341 31.44575015 367.79418539 C31.46945205 383.75237798 31.48192544 399.71054707 31.48309207 415.66875756 C31.4840094 424.63053508 31.48977634 433.59225157 31.50791168 442.5540123 C31.52329689 450.183676 31.52844243 457.81325979 31.52017358 465.44293605 C31.51626168 469.33632969 31.51722292 473.22956233 31.53123093 477.12293625 C31.54627267 481.34215531 31.53811956 485.56101017 31.52764893 489.78024292 C31.53973353 491.62926266 31.53973353 491.62926266 31.55206227 493.51563632 C31.4906196 504.06214157 31.4906196 504.06214157 28.16015625 508.69921875 C24.51475261 511.12948785 21.83380521 510.98139348 17.62098885 510.95928097 C16.8423734 510.96308664 16.06375795 510.96689231 15.2615481 510.9708133 C12.63085239 510.98118771 10.0003701 510.97721221 7.36965942 510.97337341 C5.4732234 510.97782264 3.57678923 510.98313564 1.68035781 510.98924214 C-3.54794925 511.00347026 -8.776197 511.00508452 -14.00452065 511.00464523 C-19.63653061 511.00628919 -25.26851582 511.01934773 -30.9005127 511.03083801 C-43.22259149 511.05371903 -55.54465309 511.06161181 -67.86675024 511.06666446 C-75.55567145 511.06991758 -83.24458764 511.07643768 -90.93350601 511.08366585 C-112.20794763 511.10323506 -133.48238349 511.11971893 -154.75683403 511.12254238 C-155.43752561 511.12263644 -156.11821719 511.1227305 -156.81953579 511.12282741 C-159.57818102 511.1232059 -162.33682626 511.1235699 -165.09547149 511.12393039 C-167.17188334 511.12420211 -169.24829519 511.12447879 -171.32470703 511.12475586 C-172.35389481 511.12488789 -172.35389481 511.12488789 -173.40387426 511.12502259 C-194.96736923 511.12792871 -216.53077461 511.15002959 -238.09423828 511.1862793 C-262.30825633 511.22698352 -286.52219322 511.25068118 -310.7362529 511.25100189 C-323.56180515 511.25158748 -336.38724208 511.26014472 -349.21276474 511.28899956 C-360.13154911 511.31345108 -371.05017611 511.3208385 -381.96898042 511.30575203 C-387.54326934 511.29855783 -393.11724712 511.29954838 -398.69150162 511.32216263 C-403.79036178 511.34265072 -408.88866958 511.34024794 -413.98752309 511.31928778 C-415.83610104 511.31577333 -417.68471803 511.32078485 -419.53324471 511.33499222 C-422.03917234 511.35301715 -424.54312828 511.34046414 -427.04899406 511.32004452 C-427.77300036 511.33260789 -428.49700665 511.34517126 -429.24295253 511.35811535 C-432.98509981 511.29247848 -434.75169938 510.76441342 -437.78926373 508.51772434 C-440.12023833 505.31381868 -440.45902662 503.89461663 -440.43997383 499.98230362 C-440.44662878 498.83417891 -440.45328373 497.6860542 -440.46014035 496.50313783 C-440.44196377 495.24609221 -440.4237872 493.9890466 -440.40505981 492.69390869 C-440.40349361 491.34113127 -440.40415848 489.98834973 -440.40686119 488.6355741 C-440.40802588 484.91757444 -440.3781693 481.20036699 -440.34346533 477.48255301 C-440.31158596 473.47095728 -440.3087968 469.459335 -440.30293274 465.44763184 C-440.28924825 458.48773823 -440.25850607 451.52808912 -440.21747208 444.56830597 C-440.15888771 434.46098766 -440.13850666 424.35384952 -440.12944029 414.24637815 C-440.11467128 397.7888853 -440.08569537 381.33145967 -440.04003906 364.87402344 C-440.03731675 363.88874034 -440.03459445 362.90345724 -440.03178965 361.88831708 C-439.98702574 346.01505094 -439.91779629 330.14195103 -439.84364595 314.26879957 C-439.76835513 297.91600841 -439.73652419 281.56346516 -439.73918903 265.21050239 C-439.73917721 256.05215796 -439.71842721 246.89483347 -439.64444351 237.736763 C-438.68999976 185.08071351 -438.68999976 185.08071351 -450.73428154 134.15090561 C-452.26677444 129.36629415 -453.67320323 124.67296488 -451.65234375 119.88671875 C-447.74742629 115.17388733 -443.52011696 113.80770766 -437.71704102 112.30859375 C-436.89129326 112.08756737 -436.0655455 111.86654099 -435.21477509 111.63881683 C-432.44746401 110.90039482 -429.67692856 110.1748942 -426.90625 109.44921875 C-424.92625378 108.92353532 -422.94647667 108.39702596 -420.96690369 107.86975098 C-416.69805016 106.73452209 -412.42775331 105.60495354 -408.15625 104.47973633 C-401.31795211 102.67829499 -394.48295523 100.86455049 -387.6484375 99.04882812 C-379.31442541 96.83554699 -370.97967388 94.62509334 -362.64393425 92.41832733 C-348.16095044 88.58385015 -333.68385369 84.72776245 -319.2109375 80.85546875 C-318.18067003 80.5798259 -317.15040257 80.30418304 -316.08891487 80.02018738 C-310.91073577 78.63465571 -305.73267037 77.24869965 -300.55465698 75.86254883 C-291.12115421 73.33742873 -281.68663067 70.8161268 -272.25219917 68.29447937 C-266.98970702 66.88787676 -261.72727856 65.48103589 -256.46484375 64.07421875 C-254.36067739 63.5117176 -252.25651072 62.9492176 -250.15234375 62.38671875 C-249.11078125 62.10828125 -248.06921875 61.82984375 -246.99609375 61.54296875 C-243.83984375 60.69921875 -240.68359375 59.85546875 -237.52734375 59.01171875 C-235.96496648 58.59405353 -235.96496648 58.59405353 -234.37102604 58.16795063 C-232.26708509 57.60551098 -230.16314412 57.04307138 -228.05920315 56.48063183 C-222.79533293 55.07345882 -217.53146293 53.666285 -212.26759338 52.2591095 C-202.84008306 49.73888042 -193.41257131 47.2186567 -183.98505116 44.69846439 C-178.7790955 43.30679288 -173.57314116 41.91511647 -168.3671875 40.5234375 C-167.33425001 40.2473081 -166.30131252 39.9711787 -165.2370739 39.68668175 C-150.85258417 35.84134648 -136.46815581 31.99578171 -122.08377075 28.15005493 C-114.02286038 25.99493723 -105.9619334 23.83988161 -97.90100288 21.68483925 C-92.42894245 20.22191096 -86.9568912 18.75894833 -81.48486328 17.29589844 C-80.44873964 17.01888407 -79.412616 16.7418697 -78.34509468 16.45646095 C-76.29591261 15.90855841 -74.24675229 15.36057448 -72.19761467 14.81250572 C-67.33684679 13.51257876 -62.4756954 12.21413006 -57.61355591 10.91934204 C-50.01276871 8.89406063 -42.413125 6.86742638 -34.83264637 4.76717472 C-32.03585959 3.9925021 -29.23706703 3.22522819 -26.43813896 2.45833397 C-24.60634766 1.95257888 -22.77793891 1.43462017 -20.94972229 0.91609192 C-6.58312848 -3.01538072 -6.58312848 -3.01538072 0 0 Z " fill="#FE507C" transform="translate(466.83984375,1.30078125)"/>
<path d="M0 0 C3.3383532 4.1714323 4.37208433 8.77552981 5.72265625 13.88671875 C6.01785156 14.95647949 6.31304687 16.02624023 6.6171875 17.12841797 C7.48670618 20.31331614 8.32731855 23.50455699 9.16015625 26.69921875 C9.39718262 27.58722168 9.63420898 28.47522461 9.87841797 29.39013672 C10.49035846 31.69738579 11.08165603 34.00838468 11.66015625 36.32421875 C11.91841187 37.32424927 11.91841187 37.32424927 12.18188477 38.34448242 C13.14740121 42.43487623 13.46765085 45.67529141 12.16015625 49.69921875 C7.95621325 53.96506029 3.30849095 55.11209249 -2.30810547 56.58740234 C-3.23504652 56.84120855 -4.16198757 57.09501476 -5.11701775 57.35651207 C-8.02165433 58.14890631 -10.9304297 58.92457512 -13.83984375 59.69921875 C-15.59455019 60.17529793 -17.34897445 60.65241859 -19.10308838 61.13067627 C-24.51319727 62.60112669 -29.93011983 64.04548192 -35.34765625 65.48828125 C-37.37499083 66.02965958 -39.40228253 66.57119847 -41.42953491 67.11288452 C-46.82212431 68.55331508 -52.21530618 69.99151504 -57.60861206 71.42926025 C-63.30258432 72.94759073 -68.9959828 74.46806992 -74.68945312 75.98828125 C-87.07244339 79.29422932 -99.45621123 82.59725744 -111.84022522 85.89936829 C-116.31507377 87.09258991 -120.78985964 88.28604651 -125.26464844 89.47949219 C-136.51131392 92.47892921 -147.7580684 95.47803231 -159.0051651 98.47585201 C-195.23537933 108.13285159 -231.45736464 117.82063345 -267.67977142 127.50686836 C-283.44970748 131.72388304 -299.22019014 135.93884798 -314.99106216 140.15236092 C-321.81333203 141.9751249 -328.63552664 143.79817048 -335.45772362 145.62120724 C-340.858279 147.06432183 -346.25888221 148.50725682 -351.65960693 149.94973755 C-377.39777775 156.82428083 -403.12716583 163.72988353 -428.83984375 170.69921875 C-428.17740158 170.58288086 -427.51495941 170.46654297 -426.83244324 170.34667969 C-417.08368202 168.9362184 -406.5265476 168.27098325 -398.0713501 174.04345703 C-389.15188804 180.87313777 -381.5830437 189.40695514 -374.02642822 197.66906738 C-370.87799857 201.07968673 -367.64886003 204.41213334 -364.42773438 207.75390625 C-359.76092834 212.61808415 -355.12422576 217.50763018 -350.55200195 222.4609375 C-350.07077881 222.97941254 -349.58955566 223.49788757 -349.09375 224.03207397 C-345.83984375 227.57923252 -345.83984375 227.57923252 -345.83984375 228.69921875 C-379.07600946 233.24529619 -379.07600946 233.24529619 -392.14208984 224.01611328 C-399.55443923 218.3684387 -405.96683943 211.59473281 -412.2244873 204.72242355 C-414.0468079 202.74055043 -415.90432176 200.79894994 -417.77661133 198.86428833 C-437.41462782 178.50677858 -450.15566939 159.704235 -451.83984375 130.69921875 C-452.03405802 129.26205348 -452.23586452 127.82589344 -452.4453125 126.39086914 C-452.83984375 122.69921875 -452.83984375 122.69921875 -451.65234375 119.88671875 C-447.74742629 115.17388733 -443.52011696 113.80770766 -437.71704102 112.30859375 C-436.89129326 112.08756737 -436.0655455 111.86654099 -435.21477509 111.63881683 C-432.44746401 110.90039482 -429.67692856 110.1748942 -426.90625 109.44921875 C-424.92625378 108.92353532 -422.94647667 108.39702596 -420.96690369 107.86975098 C-416.69805016 106.73452209 -412.42775331 105.60495354 -408.15625 104.47973633 C-401.31795211 102.67829499 -394.48295523 100.86455049 -387.6484375 99.04882812 C-379.31442541 96.83554699 -370.97967388 94.62509334 -362.64393425 92.41832733 C-348.16095044 88.58385015 -333.68385369 84.72776245 -319.2109375 80.85546875 C-318.18067003 80.5798259 -317.15040257 80.30418304 -316.08891487 80.02018738 C-310.91073577 78.63465571 -305.73267037 77.24869965 -300.55465698 75.86254883 C-291.12115421 73.33742873 -281.68663067 70.8161268 -272.25219917 68.29447937 C-266.98970702 66.88787676 -261.72727856 65.48103589 -256.46484375 64.07421875 C-254.36067739 63.5117176 -252.25651072 62.9492176 -250.15234375 62.38671875 C-249.11078125 62.10828125 -248.06921875 61.82984375 -246.99609375 61.54296875 C-243.83984375 60.69921875 -240.68359375 59.85546875 -237.52734375 59.01171875 C-235.96496648 58.59405353 -235.96496648 58.59405353 -234.37102604 58.16795063 C-232.26708509 57.60551098 -230.16314412 57.04307138 -228.05920315 56.48063183 C-222.79533293 55.07345882 -217.53146293 53.666285 -212.26759338 52.2591095 C-202.84008306 49.73888042 -193.41257131 47.2186567 -183.98505116 44.69846439 C-178.7790955 43.30679288 -173.57314116 41.91511647 -168.3671875 40.5234375 C-167.33425001 40.2473081 -166.30131252 39.9711787 -165.2370739 39.68668175 C-150.85258417 35.84134648 -136.46815581 31.99578171 -122.08377075 28.15005493 C-114.02286038 25.99493723 -105.9619334 23.83988161 -97.90100288 21.68483925 C-92.42894245 20.22191096 -86.9568912 18.75894833 -81.48486328 17.29589844 C-80.44873964 17.01888407 -79.412616 16.7418697 -78.34509468 16.45646095 C-76.29591261 15.90855841 -74.24675229 15.36057448 -72.19761467 14.81250572 C-67.33684679 13.51257876 -62.4756954 12.21413006 -57.61355591 10.91934204 C-50.01276871 8.89406063 -42.413125 6.86742638 -34.83264637 4.76717472 C-32.03585959 3.9925021 -29.23706703 3.22522819 -26.43813896 2.45833397 C-24.60634766 1.95257888 -22.77793891 1.43462017 -20.94972229 0.91609192 C-6.58312848 -3.01538072 -6.58312848 -3.01538072 0 0 Z " fill="#D23D68" transform="translate(466.83984375,1.30078125)"/>
<path d="M0 0 C1.11118644 0.94540042 2.22136451 1.8919861 3.33112431 2.83906078 C3.94946425 3.36606144 4.5678042 3.8930621 5.20488173 4.43603247 C7.66795617 6.58194593 9.98205756 8.85481331 12.29272461 11.16333008 C12.77167175 11.6405249 13.2506189 12.11771973 13.74407959 12.609375 C15.29932977 14.16028435 16.85096543 15.71474965 18.40234375 17.26953125 C19.49078536 18.35729825 20.57937529 19.44491685 21.66810608 20.53239441 C23.93474235 22.79756485 26.19958084 25.06451321 28.46313477 27.33276367 C31.37072187 30.24608849 34.28283087 33.15484571 37.19626522 36.06232166 C39.43788416 38.30033962 41.67713156 40.54071812 43.91565132 42.78183556 C44.9894723 43.85632498 46.06404036 44.9300683 47.13935661 46.00306129 C48.63300887 47.49419025 50.12344596 48.98845823 51.61303711 50.48364258 C52.46240341 51.33380447 53.31176971 52.18396637 54.18687439 53.05989075 C56 55 56 55 56 56 C54.97519531 56.04898438 53.95039062 56.09796875 52.89453125 56.1484375 C51.5338294 56.22351071 50.17315356 56.29905655 48.8125 56.375 C48.13896484 56.4059375 47.46542969 56.436875 46.77148438 56.46875 C42.83482003 56.69918889 39.42029413 56.96157973 36 59 C34.3157256 62.41851103 33.74847205 65.20264755 33.73930359 68.99111938 C33.72867638 70.46216881 33.72867638 70.46216881 33.71783447 71.9629364 C33.72031189 73.02784805 33.72278931 74.0927597 33.7253418 75.18994141 C33.72023087 76.32082687 33.71511993 77.45171234 33.70985413 78.61686707 C33.6959395 82.36181925 33.69691804 86.10658749 33.69921875 89.8515625 C33.69532944 92.46690946 33.69099428 95.0822558 33.68623352 97.69760132 C33.67801862 103.19034442 33.67892591 108.68303613 33.68432617 114.17578125 C33.69032754 120.47683251 33.67815365 126.7776583 33.6567561 133.0786711 C33.63681586 139.17992725 33.63399121 145.28108043 33.63749123 151.38236618 C33.63698218 153.95679627 33.63182392 156.53123026 33.62167931 159.10564041 C33.48006281 200.11464497 43.40453504 237.28497194 72.6875 267.25 C102.54371908 296.59380785 139.60749313 304.47337097 180.02687228 304.43273985 C183.94143487 304.43210954 187.85593138 304.44879578 191.77046204 304.46325684 C198.53368195 304.48592851 205.29685076 304.49790805 212.06010628 304.50238609 C221.83832615 304.50887621 231.61645408 304.53186348 241.39463668 304.55872939 C257.26348504 304.60188825 273.13232949 304.63191706 289.0012207 304.65356445 C304.40586256 304.67460695 319.81047259 304.70191044 335.21508789 304.73754883 C336.16646018 304.73974765 337.11783246 304.74194648 338.09803421 304.74421193 C342.87133647 304.7552824 347.64463843 304.76647506 352.41794026 304.77772844 C391.94526576 304.87075901 431.47260787 304.94242838 471 305 C471.08746928 309.04152915 471.14054982 313.08281305 471.1875 317.125 C471.21263672 318.26710938 471.23777344 319.40921875 471.26367188 320.5859375 C471.35755392 331.35107918 471.35755392 331.35107918 468 336 C464.35459636 338.4302691 461.67364896 338.28217473 457.4608326 338.26006222 C456.68221715 338.26386789 455.9036017 338.26767356 455.10139185 338.27159455 C452.47069614 338.28196896 449.84021385 338.27799346 447.20950317 338.27415466 C445.31306715 338.27860389 443.41663298 338.28391689 441.52020156 338.29002339 C436.2918945 338.30425151 431.06364675 338.30586577 425.8353231 338.30542648 C420.20331314 338.30707044 414.57132793 338.32012898 408.93933105 338.33161926 C396.61725226 338.35450028 384.29519066 338.36239306 371.97309351 338.36744571 C364.2841723 338.37069883 356.59525611 338.37721893 348.90633774 338.3844471 C327.63189612 338.40401631 306.35746026 338.42050018 285.08300972 338.42332363 C284.40231814 338.42341769 283.72162656 338.42351175 283.02030796 338.42360866 C280.26166273 338.42398715 277.50301749 338.42435115 274.74437226 338.42471164 C272.66796041 338.42498336 270.59154856 338.42526004 268.51513672 338.42553711 C267.48594894 338.42566914 267.48594894 338.42566914 266.43596949 338.42580384 C244.87247452 338.42870996 223.30906914 338.45081084 201.74560547 338.48706055 C177.53158742 338.52776477 153.31765053 338.55146243 129.10359085 338.55178314 C116.2780386 338.55236873 103.45260167 338.56092597 90.62707901 338.58978081 C79.70829464 338.61423233 68.78966764 338.62161975 57.87086333 338.60653328 C52.29657441 338.59933908 46.72259663 338.60032963 41.14834213 338.62294388 C36.04948197 338.64343197 30.95117417 338.64102919 25.85232066 338.62006903 C24.00374271 338.61655458 22.15512572 338.6215661 20.30659904 338.63577347 C17.80067141 338.6537984 15.29671547 338.64124539 12.79084969 338.62082577 C12.06684339 338.63338914 11.3428371 338.64595251 10.59689122 338.6588966 C6.85922262 338.59333829 5.08779894 338.0647759 2.05152434 335.82468736 C-0.29531053 332.59339507 -0.62266074 331.13098115 -0.61523914 327.18417645 C-0.62519439 326.01425048 -0.63514963 324.84432451 -0.64540654 323.63894624 C-0.63084234 322.35782466 -0.61627813 321.07670308 -0.60127258 319.75675964 C-0.6034532 318.37888081 -0.60783156 317.001004 -0.61421841 315.62313825 C-0.6254036 311.83744535 -0.60539288 308.05245916 -0.58032811 304.26685631 C-0.55874884 300.18442502 -0.56604173 296.10203404 -0.56983948 292.01956177 C-0.57246208 284.94664749 -0.55676601 277.87396371 -0.52865028 270.80110741 C-0.48802621 260.57496728 -0.47499419 250.34893868 -0.46871033 240.1227266 C-0.45776542 223.53170571 -0.42448591 206.94080769 -0.37719727 190.34985352 C-0.33130675 174.23267227 -0.29591235 158.1155244 -0.2746582 141.99829102 C-0.27334459 141.00493511 -0.27203097 140.0115792 -0.27067754 138.98812159 C-0.26415239 134.00477925 -0.25783384 129.02143666 -0.25161803 124.03809392 C-0.19977892 82.69197714 -0.1117083 41.3459956 0 0 Z " fill="#D23C69" transform="translate(27,174)"/>
<path d="M0 0 C3.4424028 1.42281206 6.59989609 3.24744601 9.8125 5.125 C11.7686952 6.22934684 13.72576886 7.33213867 15.68359375 8.43359375 C16.71210449 9.01737793 17.74061523 9.60116211 18.80029297 10.20263672 C24.28039959 13.28096306 29.82907075 16.22993208 35.375 19.1875 C36.55323758 19.81769108 37.73137781 20.44806419 38.90942383 21.07861328 C47.25622172 25.54450625 55.61535776 29.98709791 63.97674561 34.42559814 C65.98958415 35.4944689 68.00195006 36.56422403 70.01416016 37.63427734 C71.34796749 38.34345134 72.68178908 39.05259852 74.015625 39.76171875 C74.67343964 40.11145752 75.33125427 40.46119629 76.00900269 40.8215332 C80.03600684 42.96104681 84.06805123 45.09071764 88.10388184 47.21353149 C90.70462932 48.58296459 93.30230576 49.95815274 95.89941406 51.33447266 C97.11937025 51.97921467 98.34069847 52.62136818 99.56347656 53.26074219 C101.24897297 54.14237205 102.92929938 55.03386462 104.609375 55.92578125 C105.55780273 56.42505127 106.50623047 56.92432129 107.48339844 57.4387207 C110.7258595 59.45031737 113.2786759 61.55735181 115 65 C115.44149497 68.89987226 115.6689078 71.11954453 113.24609375 74.30859375 C108.7805669 78.45952533 103.04919806 80.96428029 97.6875 83.75 C96.44417873 84.40468301 95.20135077 85.06030364 93.95898438 85.71679688 C91.32833692 87.10539229 88.69518872 88.48907157 86.06005859 89.86914062 C80.0297546 93.02988167 74.02168113 96.23246082 68.01107788 99.43045044 C65.99135093 100.50459982 63.97100603 101.57757743 61.95043945 102.65014648 C53.67110477 107.04512357 45.39666245 111.44909244 37.13247681 115.87249756 C35.39465401 116.80198787 33.65570702 117.72937534 31.91674805 118.65673828 C26.47104251 121.56850604 21.05418614 124.51805027 15.68359375 127.56640625 C14.19303467 128.40498169 14.19303467 128.40498169 12.67236328 129.26049805 C10.83641126 130.29696302 9.00725478 131.34561244 7.18701172 132.40942383 C1.99151307 135.33246722 -2.91680853 137.43932869 -9 137 C-11.92143417 135.23496686 -13.47923817 134.04152365 -15 131 C-15.10134505 129.33892864 -15.1394479 127.67383152 -15.14717102 126.00968933 C-15.15432632 124.95398239 -15.16148163 123.89827545 -15.16885376 122.81057739 C-15.17154266 121.64743011 -15.17423157 120.48428284 -15.17700195 119.28588867 C-15.18357315 118.06467819 -15.19014435 116.84346771 -15.19691467 115.58525085 C-15.21327037 112.22975596 -15.22487699 108.87432417 -15.2331202 105.51880431 C-15.23827003 103.42253545 -15.24434577 101.32627101 -15.25063133 99.23000526 C-15.26968419 92.6716699 -15.283915 86.11334581 -15.2922433 79.55498809 C-15.30201649 71.98372843 -15.3283374 64.41276107 -15.36874419 56.84160441 C-15.39890164 50.9901518 -15.41371181 45.13878298 -15.41702431 39.28725415 C-15.41937529 35.79210626 -15.42834115 32.29727059 -15.45348549 28.80220604 C-15.48108998 24.90214042 -15.47693617 21.00245956 -15.4699707 17.10229492 C-15.48278076 15.94522034 -15.49559082 14.78814575 -15.50878906 13.5960083 C-15.45770798 5.76763869 -15.45770798 5.76763869 -13.09562683 1.80610657 C-8.82955156 -1.87059124 -5.28616254 -1.19007315 0 0 Z " fill="#FFC750" transform="translate(221,303)"/>
<path d="M0 0 C-1.4160506 3.78518732 -3.15421065 7.19749321 -5.16796875 10.69921875 C-5.80677979 11.81369385 -6.44559082 12.92816895 -7.10375977 14.07641602 C-7.79820741 15.28018708 -8.49279078 16.48387987 -9.1875 17.6875 C-9.90380065 18.9333766 -10.61986171 20.17939098 -11.33569336 21.42553711 C-12.81602568 24.00123 -14.29840663 26.57572887 -15.78222656 29.14941406 C-17.57176106 32.25436296 -19.3551388 35.36278109 -21.13548279 38.4730072 C-22.77555112 41.33747541 -24.41926184 44.19984907 -26.0625 47.0625 C-26.65635498 48.10043701 -27.25020996 49.13837402 -27.86206055 50.20776367 C-28.99953316 52.18366032 -30.1469124 54.15389437 -31.30517578 56.11767578 C-32.46517904 58.09044998 -33.59782096 60.07949873 -34.70654297 62.08154297 C-35.27646973 63.06396973 -35.84639648 64.04639648 -36.43359375 65.05859375 C-36.92786865 65.93700928 -37.42214355 66.8154248 -37.93139648 67.72045898 C-43.60423843 73.97176611 -54.92265545 74.94227694 -62.8828125 77.01953125 C-64.34335442 77.40404366 -65.80379144 77.78895471 -67.26412964 78.17424011 C-71.10487422 79.18655711 -74.94686072 80.19407458 -78.78918457 81.20037842 C-84.87305876 82.79471273 -90.95493752 84.39665721 -97.03707123 85.99761581 C-98.51375244 86.38622267 -99.99048256 86.77464375 -101.46726227 87.16287613 C-113.66481554 90.369677 -125.84210382 93.64561244 -138 97 C-137.33755783 96.88366211 -136.67511566 96.76732422 -135.99259949 96.64746094 C-126.24383827 95.23699965 -115.68670385 94.5717645 -107.23150635 100.34423828 C-98.31204429 107.17391902 -90.74319995 115.70773639 -83.18658447 123.96984863 C-80.03815482 127.38046798 -76.80901628 130.71291459 -73.58789062 134.0546875 C-68.92108459 138.9188654 -64.28438201 143.80841143 -59.7121582 148.76171875 C-59.23093506 149.28019379 -58.74971191 149.79866882 -58.25390625 150.33285522 C-55 153.88001377 -55 153.88001377 -55 155 C-88.23616571 159.54607744 -88.23616571 159.54607744 -101.30224609 150.31689453 C-108.71459548 144.66921995 -115.12699568 137.89551406 -121.38464355 131.0232048 C-123.20696415 129.04133168 -125.06447801 127.09973119 -126.93676758 125.16506958 C-146.57478407 104.80755983 -159.31582564 86.00501625 -161 57 C-161.19421427 55.56283473 -161.39602077 54.12667469 -161.60546875 52.69165039 C-162 49 -162 49 -160.8125 46.1875 C-156.65563753 41.17059701 -152.2115293 39.98583266 -146.09960938 38.40307617 C-145.19654399 38.16153903 -144.2934786 37.92000189 -143.3630476 37.67114544 C-140.35881165 36.86988661 -137.35135569 36.08147591 -134.34375 35.29296875 C-132.22389083 34.73014878 -130.10425051 34.16650397 -127.9848175 33.6020813 C-122.32549694 32.0972126 -116.66338506 30.60311375 -111.0006752 29.11105728 C-105.19236481 27.57869365 -99.38664641 26.03658069 -93.58081055 24.49487305 C-86.70597943 22.66983095 -79.83096937 20.8454847 -72.95475769 19.02565002 C-60.56244833 15.74564646 -48.17497756 12.4492854 -35.80078125 9.1015625 C-33.91593521 8.5918264 -33.91593521 8.5918264 -31.99301147 8.0717926 C-27.53168244 6.86407825 -23.07083069 5.65463324 -18.61083984 4.44198608 C-15.74760211 3.6637726 -12.88363369 2.88830481 -10.01953125 2.11328125 C-8.80986443 1.78253098 -8.80986443 1.78253098 -7.57575989 1.44509888 C-2.2265856 0 -2.2265856 0 0 0 Z " fill="#FDD764" transform="translate(176,75)"/>
<path d="M0 0 C43.06735508 -0.18306495 86.13466532 -0.32405384 129.20233232 -0.40852264 C134.28552362 -0.41852843 139.36871415 -0.42888299 144.4519043 -0.43945312 C145.46388653 -0.44155161 146.47586877 -0.44365009 147.51851713 -0.44581217 C163.90978508 -0.48063367 180.30082884 -0.5437162 196.69196374 -0.61722237 C213.50769809 -0.69200436 230.32331492 -0.73646382 247.13920873 -0.75270796 C257.51772845 -0.76369135 267.8956145 -0.7983944 278.27393918 -0.86333174 C285.3883799 -0.9055824 292.50249248 -0.91840934 299.61704958 -0.90801102 C303.7235669 -0.90288083 307.82897618 -0.91080607 311.93529701 -0.9536438 C315.69569485 -0.99258651 319.45424026 -0.99453967 323.21472352 -0.96719116 C325.21784331 -0.96221169 327.22094136 -0.99671231 329.22374493 -1.03265047 C337.80302803 -0.9182772 337.80302803 -0.9182772 341.29024494 1.75699997 C343.03785658 3.75713433 344.49764861 5.81475848 346 8 C347.95979075 9.60644471 349.92420426 11.20727696 351.89453125 12.80078125 C356.13241861 16.69817026 357.65475429 19.97007598 358.03903198 25.71871948 C358.09894596 29.88915843 357.91990205 34.02459338 357.6875 38.1875 C357.63221667 39.91976509 357.58204526 41.65220124 357.53710938 43.38476562 C357.41693286 47.59413128 357.22781489 51.79514252 357 56 C351.70668597 51.76301731 347.30083967 47.09924537 342.83761597 42.00186157 C339.48777835 38.17713027 336.03065879 34.45334182 332.56686211 30.73194313 C329.96141713 27.92388665 327.3999446 25.09340744 324.91455078 22.17822266 C312.35311648 7.31797799 312.35311648 7.31797799 294.70853233 0.70239449 C284.76970349 0.02393657 274.86638689 0.76116799 265 2 C265.67651611 2.6742955 266.35303223 3.348591 267.05004883 4.0433197 C273.41002389 10.3830661 279.7673895 16.7254187 286.12217712 23.07036495 C289.38970202 26.33266031 292.65815512 29.59401451 295.92871094 32.85327148 C299.08203872 35.99577287 302.23295228 39.14067598 305.38217163 42.28729439 C306.58704069 43.49030875 307.79279277 44.69243937 308.99942017 45.89369011 C310.68291503 47.56997783 312.36330709 49.24931601 314.04296875 50.92944336 C314.54790863 51.43078796 315.05284851 51.93213257 315.5730896 52.44866943 C319 55.88594784 319 55.88594784 319 57 C286.24845455 61.68632966 286.24845455 61.68632966 275.07021713 53.35856628 C272.00227717 50.75080911 269.22973652 47.94712273 266.5234375 44.96875 C265.97137886 44.3644516 265.41932022 43.7601532 264.85053253 43.13754272 C260.87518744 38.71249222 257.11123027 34.12713087 253.375 29.5 C249.10924358 24.22979975 244.77531685 19.04652796 240.2109375 14.03125 C239.66880363 13.43138275 239.12666977 12.8315155 238.5681076 12.21347046 C231.1163593 4.23709082 224.76892507 0.68879372 213.76426888 0.16082001 C205.78381789 0.05250963 197.8817461 0.80164408 190 2 C190.67651611 2.6742955 191.35303223 3.348591 192.05004883 4.0433197 C198.41002389 10.3830661 204.7673895 16.7254187 211.12217712 23.07036495 C214.38970202 26.33266031 217.65815512 29.59401451 220.92871094 32.85327148 C224.08203872 35.99577287 227.23295228 39.14067598 230.38217163 42.28729439 C231.58704069 43.49030875 232.79279277 44.69243937 233.99942017 45.89369011 C235.68291503 47.56997783 237.36330709 49.24931601 239.04296875 50.92944336 C239.54790863 51.43078796 240.05284851 51.93213257 240.5730896 52.44866943 C244 55.88594784 244 55.88594784 244 57 C211.24845455 61.68632966 211.24845455 61.68632966 200.07021713 53.35856628 C197.00227717 50.75080911 194.22973652 47.94712273 191.5234375 44.96875 C190.97137886 44.3644516 190.41932022 43.7601532 189.85053253 43.13754272 C185.87518744 38.71249222 182.11123027 34.12713087 178.375 29.5 C174.10924358 24.22979975 169.77531685 19.04652796 165.2109375 14.03125 C164.66880363 13.43138275 164.12666977 12.8315155 163.5681076 12.21347046 C156.1163593 4.23709082 149.76892507 0.68879372 138.76426888 0.16082001 C130.78381789 0.05250963 122.8817461 0.80164408 115 2 C115.67651611 2.6742955 116.35303223 3.348591 117.05004883 4.0433197 C123.41002389 10.3830661 129.7673895 16.7254187 136.12217712 23.07036495 C139.38970202 26.33266031 142.65815512 29.59401451 145.92871094 32.85327148 C149.08203872 35.99577287 152.23295228 39.14067598 155.38217163 42.28729439 C156.58704069 43.49030875 157.79279277 44.69243937 158.99942017 45.89369011 C160.68291503 47.56997783 162.36330709 49.24931601 164.04296875 50.92944336 C164.54790863 51.43078796 165.05284851 51.93213257 165.5730896 52.44866943 C169 55.88594784 169 55.88594784 169 57 C136.23892509 61.67551889 136.23892509 61.67551889 125.08168602 53.37003517 C122.02158725 50.77014236 119.25707369 47.97441958 116.55859375 45.00390625 C116.0077776 44.40085033 115.45696144 43.79779442 114.88945389 43.17646408 C110.9219623 38.75923935 107.16564383 34.18193582 103.4375 29.5625 C99.18391821 24.30352031 94.86187679 19.13215344 90.30859375 14.12890625 C89.76648632 13.52906544 89.22437889 12.92922462 88.66584396 12.31120682 C80.36985911 3.43181765 73.04997307 0.24905957 60.89772034 -0.23536682 C53.55634935 -0.29976726 46.28891702 0.14928768 39 1 C44.17358367 7.15140331 49.74067254 12.86376621 55.44431877 18.51948357 C56.99735542 20.05958462 58.54709502 21.60293917 60.09608459 23.14710999 C63.37372346 26.41342622 66.65533411 29.67573365 69.9375 32.9375 C73.7674861 36.74387507 77.5958221 40.5518809 81.42001534 44.36407661 C82.94920557 45.88677199 84.48136543 47.4064362 86.01365662 48.92601013 C87.39122887 50.29862755 87.39122887 50.29862755 88.79663086 51.69897461 C89.61046738 52.50757431 90.42430389 53.31617401 91.26280212 54.14927673 C93 56 93 56 93 57 C61.80871988 61.74316676 61.80871988 61.74316676 49.66221428 53.30382729 C41.39790761 46.83801814 34.4025029 38.95880254 27.49993896 31.09881592 C24.44032275 27.66126833 21.26449165 24.33446678 18.09960938 20.99414062 C13.52341174 16.13436397 8.99410632 11.23831107 4.5534668 6.25415039 C4.0879541 5.73410431 3.62244141 5.21405823 3.14282227 4.67825317 C0 1.12278797 0 1.12278797 0 0 Z " fill="#D33E69" transform="translate(140,173)"/>
<path d="M0 0 C-6.97694286 12.56298393 -13.99935943 25.09256728 -21.25 37.5 C-21.8265332 38.48701904 -22.40306641 39.47403809 -22.99707031 40.4909668 C-25.67609399 45.06629655 -28.37204277 49.63038489 -31.1015625 54.17578125 C-31.57303711 54.9646875 -32.04451172 55.75359375 -32.53027344 56.56640625 C-33.4000351 58.0191672 -34.27532872 59.46863664 -35.15722656 60.9140625 C-37.44852917 64.68466511 -37.44852917 64.68466511 -38 69 C-39.54284164 69.41223312 -39.54284164 69.41223312 -41.11685181 69.83279419 C-50.91111048 72.44980995 -60.70520751 75.06742989 -70.49915504 77.68560982 C-75.53174765 79.03093438 -80.56439285 80.37606146 -85.59716797 81.72070312 C-90.47326025 83.02349114 -95.34920169 84.32684237 -100.22504807 85.63055038 C-102.0656763 86.12260006 -103.90635472 86.61446207 -105.74708939 87.10611343 C-107.50406069 87.57541741 -109.260949 88.04503219 -111.01775169 88.51496696 C-112.72902731 88.9725252 -114.440552 89.42915302 -116.15233803 89.88479805 C-120.80963958 91.12848592 -125.45542601 92.40576099 -130.09344482 93.71966553 C-131.10030523 94.00226667 -132.10716564 94.28486782 -133.14453697 94.57603264 C-135.09196047 95.12372784 -137.03748307 95.67823953 -138.98078346 96.24038887 C-140.29285806 96.60780095 -140.29285806 96.60780095 -141.63143921 96.9826355 C-142.4039974 97.20348753 -143.1765556 97.42433956 -143.97252464 97.65188408 C-146 98 -146 98 -149 97 C-148.08203125 95.40885417 -147.1640625 93.81770833 -146.24609375 92.2265625 C-145.64627686 91.18685303 -145.04645996 90.14714355 -144.4284668 89.07592773 C-143.08497317 86.74726036 -141.74139965 84.4186393 -140.39770508 82.09008789 C-134.23745908 71.41442323 -134.23745908 71.41442323 -128.09033203 60.73120117 C-126.82258551 58.53679929 -125.54490246 56.34810778 -124.25732422 54.1652832 C-121.09645799 48.78835251 -118.15426888 43.50094097 -115.82373047 37.70849609 C-113.04809295 32.43553701 -110.57357821 28.17824391 -104.71411133 26.15893555 C-102.92749615 25.6655283 -101.13242613 25.20219896 -99.33203125 24.76171875 C-97.80091202 24.35107178 -97.80091202 24.35107178 -96.23886108 23.93212891 C-93.86897988 23.29930411 -91.49579764 22.67876805 -89.12020874 22.06771851 C-84.49935437 20.8781851 -79.89624391 19.6252029 -75.29223633 18.37231445 C-66.14907723 15.88919607 -56.99543775 13.44703047 -47.83789062 11.01757812 C-43.0188281 9.73886354 -38.20233986 8.45070586 -33.38633919 7.16051483 C-29.65428859 6.16234177 -25.92056775 5.1705379 -22.18633652 4.18055725 C-20.40664586 3.70761144 -18.62757806 3.23231529 -16.84915543 2.75462341 C-14.3896079 2.0946611 -11.92786194 1.44365244 -9.46533203 0.79492188 C-8.73411636 0.59660767 -8.0029007 0.39829346 -7.24952698 0.19396973 C-2.22830946 -1.11415473 -2.22830946 -1.11415473 0 0 Z " fill="#FED864" transform="translate(285,47)"/>
<path d="M0 0 C3.3383532 4.1714323 4.37208433 8.77552981 5.72265625 13.88671875 C6.01785156 14.95647949 6.31304687 16.02624023 6.6171875 17.12841797 C7.48670618 20.31331614 8.32731855 23.50455699 9.16015625 26.69921875 C9.5156958 28.03122314 9.5156958 28.03122314 9.87841797 29.39013672 C10.49035846 31.69738579 11.08165603 34.00838468 11.66015625 36.32421875 C11.83232666 36.99090576 12.00449707 37.65759277 12.18188477 38.34448242 C13.14740121 42.43487623 13.46765085 45.67529141 12.16015625 49.69921875 C7.97204731 53.93906195 3.38716743 55.08855896 -2.20239258 56.55493164 C-3.1256046 56.80761086 -4.04881662 57.06029009 -5.00000477 57.32062626 C-6.95755003 57.85486778 -8.9165911 58.38365446 -10.87698746 58.90733719 C-13.7376758 59.67191236 -16.59387583 60.45122351 -19.44906616 61.23605347 C-25.30788551 62.84346955 -31.17283208 64.42768632 -37.0390625 66.0078125 C-38.08746622 66.29040483 -39.13586994 66.57299717 -40.21604347 66.86415291 C-45.72918313 68.34984072 -51.24290015 69.83336365 -56.75708008 71.31518555 C-62.44702851 72.84478253 -68.13469334 74.38270869 -73.82194805 75.92228603 C-78.21540415 77.10995224 -82.61052919 78.29134442 -87.00614357 79.47099495 C-89.10683639 80.03597313 -91.20687747 80.60338037 -93.30624962 81.17324638 C-96.21633412 81.96259824 -99.12866676 82.74303312 -102.04174805 83.52124023 C-102.90858719 83.75852844 -103.77542633 83.99581665 -104.66853333 84.24029541 C-110.61161889 85.81333118 -110.61161889 85.81333118 -112.83984375 84.69921875 C-105.12629969 70.95522672 -97.33410362 57.26195723 -89.33203125 43.68359375 C-86.94307063 39.62142594 -84.62528293 35.52790449 -82.34765625 31.40234375 C-81.77917969 30.39179932 -81.21070313 29.38125488 -80.625 28.34008789 C-79.5486891 26.42536245 -78.49017876 24.50047812 -77.453125 22.56420898 C-76.72029297 21.2755896 -76.72029297 21.2755896 -75.97265625 19.9609375 C-75.35221436 18.8311145 -75.35221436 18.8311145 -74.71923828 17.6784668 C-69.64859223 12.33841385 -59.67946629 11.18415618 -52.78125 9.34375 C-51.63752426 9.03725021 -50.49379852 8.73075043 -49.31541443 8.41496277 C-46.90643843 7.77152229 -44.49684344 7.13039532 -42.08666992 6.49145508 C-38.41477342 5.51502405 -34.74749604 4.52239718 -31.08007812 3.52929688 C-28.73073581 2.90394376 -26.38113462 2.2795622 -24.03125 1.65625 C-22.9434877 1.35942825 -21.8557254 1.06260651 -20.73500061 0.75679016 C-6.48496833 -2.97041878 -6.48496833 -2.97041878 0 0 Z " fill="#FED864" transform="translate(466.83984375,1.30078125)"/>
<path d="M0 0 C9.40942893 4.68453539 18.80114243 9.39662258 28.125 14.25 C29.71803955 15.07842407 29.71803955 15.07842407 31.34326172 15.92358398 C39.21936812 20.03507324 47.02846543 24.25917454 54.81298828 28.54101562 C61.49372951 32.20640509 68.23358448 35.74568689 75 39.25 C88.76138615 46.41132557 88.76138615 46.41132557 94.375 49.5 C95.45523438 50.0878125 96.53546875 50.675625 97.6484375 51.28125 C100 53 100 53 100.8515625 55.21875 C100.90054688 55.8065625 100.94953125 56.394375 101 57 C96.30311384 58.66859261 91.56794658 59.84620616 86.703125 60.89526367 C85.89258667 61.07272629 85.08204834 61.2501889 84.24694824 61.43302917 C81.58211534 62.01516939 78.91618368 62.59204861 76.25 63.16796875 C74.87938416 63.46496894 74.87938416 63.46496894 73.4810791 63.76796913 C68.65095652 64.81451076 63.81999151 65.85705422 58.98828125 66.89624023 C54.00287851 67.96926614 49.02047421 69.05559633 44.03863525 70.14503002 C40.20031108 70.98190769 36.35992917 71.8090164 32.5189209 72.63347816 C30.68096515 73.02974888 28.84379252 73.42967031 27.00744629 73.83333397 C24.43935684 74.3968746 21.86865845 74.94652298 19.296875 75.49291992 C18.54241089 75.6616864 17.78794678 75.83045288 17.01062012 76.0043335 C12.70878563 76.90073301 9.19226634 77.45425649 5 76 C1.53803714 72.80773355 0.22325976 71.25466265 -0.60127258 66.6210022 C-0.59016953 65.39078339 -0.57906647 64.16056458 -0.56762695 62.89306641 C-0.56835709 62.20944031 -0.56908722 61.52581421 -0.56983948 60.82147217 C-0.56637917 58.58067119 -0.52759894 56.3419964 -0.48828125 54.1015625 C-0.47894741 52.54073217 -0.47183399 50.97988712 -0.46684265 49.41903687 C-0.44781731 45.32516526 -0.39875665 41.23219077 -0.34332275 37.13867188 C-0.29203284 32.9558526 -0.26930794 28.77288734 -0.24414062 24.58984375 C-0.19063214 16.392819 -0.10537524 8.19652132 0 0 Z " fill="#FFDB63" transform="translate(234,311)"/>
<path d="M0 0 C31.19128012 -4.74316676 31.19128012 -4.74316676 43.33778572 3.69617271 C51.60209239 10.16198186 58.5974971 18.04119746 65.50006104 25.90118408 C68.55967725 29.33873167 71.73550835 32.66553322 74.90039062 36.00585938 C79.47658826 40.86563603 84.00589368 45.76168893 88.4465332 50.74584961 C88.9120459 51.26589569 89.37755859 51.78594177 89.85717773 52.32174683 C93 55.87721203 93 55.87721203 93 57 C60.75698369 61.64699792 60.75698369 61.64699792 48.65733719 53.38150406 C40.50596636 47.08594772 33.65010325 39.34940076 26.89483643 31.6206665 C23.90563558 28.2500454 20.79410891 24.99608072 17.6953125 21.7265625 C13.21658542 16.96460945 8.78040854 12.16968426 4.44580078 7.27587891 C3.58334747 6.30325104 2.72089417 5.33062317 1.83230591 4.32852173 C0 2 0 2 0 0 Z " fill="#FED864" transform="translate(103,173)"/>
<path d="M0 0 C-6.97694286 12.56298393 -13.99935943 25.09256728 -21.25 37.5 C-21.8265332 38.48701904 -22.40306641 39.47403809 -22.99707031 40.4909668 C-25.67609399 45.06629655 -28.37204277 49.63038489 -31.1015625 54.17578125 C-31.57303711 54.9646875 -32.04451172 55.75359375 -32.53027344 56.56640625 C-33.4000351 58.0191672 -34.27532872 59.46863664 -35.15722656 60.9140625 C-37.44852917 64.68466511 -37.44852917 64.68466511 -38 69 C-56.81 73.95 -56.81 73.95 -76 79 C-74.51508007 75.28770017 -73.03192692 72.09399307 -71.09375 68.640625 C-70.52011719 67.61638428 -69.94648438 66.59214355 -69.35546875 65.53686523 C-68.74316406 64.45219971 -68.13085938 63.36753418 -67.5 62.25 C-66.86707031 61.124729 -66.23414063 59.99945801 -65.58203125 58.84008789 C-57.07263019 43.75337721 -57.07263019 43.75337721 -53.77734375 38.48144531 C-51.26326222 34.41281024 -49.28517408 30.37065485 -47.46875 25.94140625 C-40.2733729 9.70618937 -40.2733729 9.70618937 -32.07617188 6.03857422 C-7.10314471 -3.55157235 -7.10314471 -3.55157235 0 0 Z " fill="#D23D68" transform="translate(285,47)"/>
<path d="M0 0 C-1.4160506 3.78518732 -3.15421065 7.19749321 -5.16796875 10.69921875 C-6.1261853 12.3709314 -6.1261853 12.3709314 -7.10375977 14.07641602 C-7.79820741 15.28018708 -8.49279078 16.48387987 -9.1875 17.6875 C-9.90380065 18.9333766 -10.61986171 20.17939098 -11.33569336 21.42553711 C-12.81602568 24.00123 -14.29840663 26.57572887 -15.78222656 29.14941406 C-17.57176106 32.25436296 -19.3551388 35.36278109 -21.13548279 38.4730072 C-22.77555112 41.33747541 -24.41926184 44.19984907 -26.0625 47.0625 C-26.65635498 48.10043701 -27.25020996 49.13837402 -27.86206055 50.20776367 C-28.99953316 52.18366032 -30.1469124 54.15389437 -31.30517578 56.11767578 C-32.46517904 58.09044998 -33.59782096 60.07949873 -34.70654297 62.08154297 C-39.48995815 70.32708505 -39.48995815 70.32708505 -43.53125 71.95703125 C-45.01098665 72.3444623 -46.50299564 72.68583235 -48 73 C-49.07507813 73.28407715 -50.15015625 73.5681543 -51.2578125 73.86083984 C-54.99536118 74.84774878 -58.74404326 75.77332151 -62.5 76.6875 C-63.81260878 77.01062615 -65.12510978 77.33419045 -66.4375 77.65820312 C-69.62396969 78.44310558 -72.81145653 79.2235731 -76 80 C-74.5839494 76.21481268 -72.84578935 72.80250679 -70.83203125 69.30078125 C-70.19322021 68.18638672 -69.55440918 67.07199219 -68.89624023 65.92382812 C-68.20174844 64.72000115 -67.50716616 63.51622637 -66.8125 62.3125 C-66.09617508 61.06590485 -65.38011438 59.81915783 -64.66430664 58.57226562 C-62.81287424 55.34925573 -60.95734548 52.12862532 -59.10046387 48.90875244 C-58.03003677 47.05209872 -56.96060927 45.19487361 -55.89160156 43.33740234 C-46.80649115 27.55146455 -46.80649115 27.55146455 -44.65844727 23.95605469 C-42.93549408 21.00909568 -42.93549408 21.00909568 -41.62084961 17.77050781 C-39.3651434 12.87984054 -37.38234191 9.31732425 -32.29418945 7.21289062 C-27.83890514 5.70182671 -23.28476284 4.71979068 -18.6875 3.75 C-17.09726264 3.37550226 -15.50804929 2.99662799 -13.91992188 2.61328125 C-2.91285527 0 -2.91285527 0 0 0 Z " fill="#FED864" transform="translate(176,75)"/>
<path d="M0 0 C-1.37300618 3.65709179 -3.02306228 6.95590808 -4.984375 10.33203125 C-5.5829834 11.36610107 -6.1815918 12.4001709 -6.79833984 13.46557617 C-7.4423877 14.57006104 -8.08643555 15.6745459 -8.75 16.8125 C-9.42294552 17.97161206 -10.09563049 19.13087543 -10.76806641 20.2902832 C-12.5018432 23.27760362 -14.2398198 26.26245818 -15.97888184 29.2467041 C-18.18984852 33.04301187 -20.39452438 36.84297904 -22.59814453 40.64355469 C-23.77871641 42.66600182 -24.96975859 44.6823748 -26.17138672 46.69238281 C-28.69128448 50.91798115 -31.10383987 55.05451596 -33.03125 59.5859375 C-35.35153068 64.77042039 -37.30496715 68.68980879 -42.59130859 71.25976562 C-48.67531501 73.54237681 -54.89505223 75.09685878 -61.25048828 76.41650391 C-63.69954535 76.93623809 -66.08568917 77.5582777 -68.49609375 78.23046875 C-71.81856803 78.96015374 -72.91818576 78.94841302 -76 78 C-54.2823938 39.924181 -54.2823938 39.924181 -45 24 C-44.55092285 23.22914062 -44.1018457 22.45828125 -43.63916016 21.6640625 C-42.54093222 19.7902249 -41.43103204 17.92426714 -40.3125 16.0625 C-39.75175781 15.12535156 -39.19101562 14.18820313 -38.61328125 13.22265625 C-35.27031013 8.6169648 -31.56755745 7.37869068 -26.15234375 5.95703125 C-25.49923721 5.78370773 -24.84613068 5.61038422 -24.17323303 5.43180847 C-22.7984918 5.06884737 -21.42259816 4.71022636 -20.0456543 4.35571289 C-17.9385251 3.81276414 -15.83536091 3.25620016 -13.73242188 2.69726562 C-3.46383854 0 -3.46383854 0 0 0 Z " fill="#FED864" transform="translate(394,17)"/>
<path d="M0 0 C-7.51380568 13.52968226 -15.07513825 27.02322781 -22.94433594 40.3503418 C-25.72692052 45.06684621 -28.45331844 49.7955056 -31.04296875 54.62109375 C-31.52290283 55.49910645 -32.00283691 56.37711914 -32.49731445 57.28173828 C-33.38439651 58.911278 -34.25303363 60.551065 -35.09838867 62.20263672 C-37.5402617 66.63962033 -39.47891291 68.89866764 -44.56445312 70.38354492 C-45.77004883 70.68869019 -45.77004883 70.68869019 -47 71 C-47.99966797 71.29302002 -48.99933594 71.58604004 -50.02929688 71.88793945 C-53.44673635 72.88369163 -56.87617474 73.82167645 -60.3125 74.75 C-61.49134766 75.07871094 -62.67019531 75.40742188 -63.88476562 75.74609375 C-65.57569336 76.20435547 -65.57569336 76.20435547 -67.30078125 76.671875 C-68.32341064 76.9512793 -69.34604004 77.23068359 -70.3996582 77.51855469 C-73 78 -73 78 -76 77 C-75.08203125 75.40885417 -74.1640625 73.81770833 -73.24609375 72.2265625 C-72.64627686 71.18685303 -72.04645996 70.14714355 -71.4284668 69.07592773 C-70.08497317 66.74726036 -68.74139965 64.4186393 -67.39770508 62.09008789 C-61.23745908 51.41442323 -61.23745908 51.41442323 -55.09033203 40.73120117 C-53.82258551 38.53679929 -52.54490246 36.34810778 -51.25732422 34.1652832 C-48.49461329 29.46565213 -45.85132153 24.84030824 -43.6796875 19.8359375 C-40.45022386 12.71936317 -37.87690064 8.39400112 -30.33203125 5.484375 C-25.19971031 3.83241777 -20.02204672 2.58813909 -14.73339844 1.55126953 C-12.28443915 1.05736545 -9.91254966 0.44891195 -7.5078125 -0.22265625 C-4.17934307 -0.96025694 -3.08718153 -0.95104153 0 0 Z " fill="#D23D68" transform="translate(212,67)"/>
<path d="M0 0 C-3.84380354 7.90532758 -7.95505546 15.56527811 -12.4375 23.125 C-13.66474498 25.21053604 -14.89128112 27.29648933 -16.1171875 29.3828125 C-17.06609863 30.99591309 -17.06609863 30.99591309 -18.03417969 32.64160156 C-20.06103584 36.10427334 -22.06991917 39.57669183 -24.0703125 43.0546875 C-24.40537308 43.63711212 -24.74043365 44.21953674 -25.08564758 44.8196106 C-26.70472566 47.63534092 -28.32176923 50.45222712 -29.93725586 53.27001953 C-31.09904442 55.29047993 -32.27441823 57.30320928 -33.46533203 59.30664062 C-35.00860783 61.89794999 -35.00860783 61.89794999 -36.01513672 64.36523438 C-37.78680793 68.16431829 -39.2124317 69.65558921 -43.11743164 71.36328125 C-47.0542153 72.58695567 -50.98557443 73.57649365 -55 74.5 C-56.38090323 74.84619827 -57.76112302 75.19513468 -59.140625 75.546875 C-69.90373121 78.22596664 -69.90373121 78.22596664 -75 78 C-73.70891809 74.60997279 -72.24218459 71.47839169 -70.453125 68.32421875 C-69.69092651 66.97674561 -69.69092651 66.97674561 -68.91333008 65.60205078 C-68.36443115 64.64024902 -67.81553223 63.67844727 -67.25 62.6875 C-66.39088013 61.17518799 -66.39088013 61.17518799 -65.5144043 59.63232422 C-60.74501055 51.25822385 -55.93019526 42.90972237 -51.03344727 34.609375 C-48.3443467 30.0508885 -45.69960492 25.48784615 -43.2109375 20.81640625 C-42.78063232 20.02862793 -42.35032715 19.24084961 -41.90698242 18.42919922 C-41.12620746 16.99394882 -40.36635391 15.54699404 -39.6340332 14.08642578 C-37.59675505 10.39858157 -35.93852915 8.6384285 -31.91015625 7.25 C-30.27879515 6.81282687 -28.64149861 6.39741877 -27 6 C-25.16041168 5.46845274 -23.32190284 4.9331583 -21.484375 4.39453125 C-19.57365907 3.86450388 -17.66218954 3.33718615 -15.75 2.8125 C-14.29980469 2.40354492 -14.29980469 2.40354492 -12.8203125 1.98632812 C-11.88445312 1.72916016 -10.94859375 1.47199219 -9.984375 1.20703125 C-8.72705566 0.85862183 -8.72705566 0.85862183 -7.44433594 0.50317383 C-4.89754861 -0.02108992 -2.59279423 -0.08937678 0 0 Z " fill="#FED864" transform="translate(321,37)"/>
<path d="M0 0 C0.495 0.99 0.495 0.99 1 2 C-0.1171875 4.38476562 -0.1171875 4.38476562 -1.875 7.40625 C-2.84747681 9.0919812 -2.84747681 9.0919812 -3.83959961 10.81176758 C-4.55957416 12.04127146 -5.27971172 13.27067989 -6 14.5 C-6.73194584 15.76218239 -7.46313839 17.02480189 -8.19360352 18.2878418 C-9.70598664 20.90044413 -11.22268459 23.51046938 -12.74267578 26.11865234 C-14.87228661 29.77560926 -16.98407925 33.44255365 -19.08984375 37.11328125 C-26.19685047 49.48866608 -26.19685047 49.48866608 -28.17700195 52.79736328 C-29.52065407 55.15788671 -30.69228581 57.44729786 -31.82885742 59.90185547 C-35.05802885 66.52253003 -37.84566318 71.25015322 -45.01679993 73.81892395 C-48.78850896 74.91835497 -52.58730774 75.73020236 -56.4375 76.5 C-58.01884882 76.86828376 -59.59895383 77.24195129 -61.17773438 77.62109375 C-72.49265534 80.25367233 -72.49265534 80.25367233 -75 79 C-67.28645594 65.25600797 -59.49425987 51.56273848 -51.4921875 37.984375 C-49.10322688 33.92220719 -46.78543918 29.82868574 -44.5078125 25.703125 C-43.93933594 24.69258057 -43.37085938 23.68203613 -42.78515625 22.64086914 C-41.70884535 20.7261437 -40.65033501 18.80125937 -39.61328125 16.86499023 C-36.93056974 12.1476827 -34.96205681 9.08370346 -29.44482422 7.55932617 C-28.23463623 7.28245972 -28.23463623 7.28245972 -27 7 C-25.95473145 6.71423096 -24.90946289 6.42846191 -23.83251953 6.1340332 C-20.23091775 5.15357218 -16.61870343 4.22768424 -13 3.3125 C-11.74832031 2.99216797 -10.49664062 2.67183594 -9.20703125 2.34179688 C-6.13900996 1.55722654 -3.07000986 0.77674564 0 0 Z " fill="#D23D68" transform="translate(429,7)"/>
<path d="M0 0 C-12.80412351 22.24073547 -12.80412351 22.24073547 -18.7265625 32.40234375 C-19.31236084 33.40861816 -19.89815918 34.41489258 -20.50170898 35.45166016 C-21.66713696 37.44205034 -22.84114833 39.42743951 -24.02368164 41.40771484 C-26.77115298 46.0304444 -29.34574957 50.61859044 -31.58203125 55.51171875 C-37.7098593 68.45536502 -37.7098593 68.45536502 -44.96484375 71.3984375 C-49.4474229 72.84086743 -53.97383774 73.79092708 -58.61279297 74.57519531 C-61.6686814 75.11899219 -64.59514513 75.97241292 -67.5625 76.875 C-70.69247376 77.76927822 -72.63666409 78 -76 78 C-74.63527177 74.36739655 -73.0019884 71.09038593 -71.05078125 67.73828125 C-70.4570874 66.71412109 -69.86339355 65.68996094 -69.25170898 64.63476562 C-68.61177002 63.53841797 -67.97183105 62.44207031 -67.3125 61.3125 C-66.3024355 59.57273251 -65.2923768 57.83296163 -64.28266907 56.09298706 C-63.23071253 54.28101588 -62.17737508 52.46985184 -61.12402344 50.65869141 C-59.03445995 47.06287395 -56.95692726 43.46021431 -54.8828125 39.85546875 C-54.54990707 39.2771077 -54.21700165 38.69874664 -53.87400818 38.1028595 C-52.28238299 35.33753414 -50.69132439 32.57188416 -49.10083008 29.8059082 C-45.85834825 24.17910313 -42.56778605 18.590971 -39.16625977 13.05859375 C-37.86490552 10.91552953 -37.86490552 10.91552953 -37 8 C-34.50274991 7.07333542 -32.1413613 6.35376182 -29.5703125 5.703125 C-28.82417694 5.50523376 -28.07804138 5.30734253 -27.30929565 5.10345459 C-25.72879428 4.68735174 -24.14662361 4.27754668 -22.56298828 3.87353516 C-20.13776906 3.25326579 -17.71928825 2.61073144 -15.30078125 1.96484375 C-13.76597489 1.56376286 -12.23082867 1.1639798 -10.6953125 0.765625 C-9.97022491 0.57301086 -9.24513733 0.38039673 -8.49807739 0.1819458 C-3.34663938 -1.11554646 -3.34663938 -1.11554646 0 0 Z " fill="#D23D68" transform="translate(140,86)"/>
<path d="M0 0 C32.24771753 -4.65828661 32.24771753 -4.65828661 44.34266281 3.62996483 C52.49243497 9.94370379 59.34969855 17.69562739 66.10516357 25.43762207 C69.09558753 28.81673823 72.2057672 32.08202752 75.3046875 35.36132812 C93 54.20751125 93 54.20751125 93 56 C60.75228247 60.65828661 60.75228247 60.65828661 48.65733719 52.37003517 C40.50756503 46.05629621 33.65030145 38.30437261 26.89483643 30.56237793 C23.90441247 27.18326177 20.7942328 23.91797248 17.6953125 20.63867188 C0 1.79248875 0 1.79248875 0 0 Z " fill="#FED964" transform="translate(404,174)"/>
<path d="M0 0 C32.24771753 -4.65828661 32.24771753 -4.65828661 44.34266281 3.62996483 C52.49243497 9.94370379 59.34969855 17.69562739 66.10516357 25.43762207 C69.09558753 28.81673823 72.2057672 32.08202752 75.3046875 35.36132812 C93 54.20751125 93 54.20751125 93 56 C60.75228247 60.65828661 60.75228247 60.65828661 48.65733719 52.37003517 C40.50756503 46.05629621 33.65030145 38.30437261 26.89483643 30.56237793 C23.90441247 27.18326177 20.7942328 23.91797248 17.6953125 20.63867188 C0 1.79248875 0 1.79248875 0 0 Z " fill="#FED964" transform="translate(28,174)"/>
<path d="M0 0 C31.27614346 -4.65827407 31.27614346 -4.65827407 43.27157784 3.62996483 C51.40150127 9.96549021 58.26668072 17.70927054 65.03649902 25.43762207 C68.03567814 28.81486803 71.15125364 32.08130425 74.25585938 35.36132812 C92 54.22633337 92 54.22633337 92 56 C59.6721625 60.56211341 59.6721625 60.56211341 47.72354507 52.44771194 C39.70668852 46.28220287 32.98094487 38.68146041 26.35839844 31.08422852 C23.42964192 27.77390865 20.37836702 24.58031206 17.33984375 21.37109375 C12.94890361 16.69698651 8.60061069 11.99000875 4.35400391 7.18408203 C3.50931549 6.22921906 2.66462708 5.27435608 1.79434204 4.29055786 C0 2 0 2 0 0 Z " fill="#FED964" transform="translate(179,174)"/>
<path d="M0 0 C5.28338899 -0.19860929 10.5645816 -0.3433133 15.85083008 -0.43945312 C17.64646268 -0.47954648 19.44183634 -0.53403986 21.23657227 -0.60351562 C23.82633353 -0.70121536 26.41263091 -0.74606036 29.00390625 -0.78125 C30.19651817 -0.84318542 30.19651817 -0.84318542 31.41322327 -0.90637207 C34.78862019 -0.90905481 37.07555583 -0.77242756 39.72203064 1.43885803 C40.87456705 2.77807446 41.98657523 4.15272721 43.06678772 5.55093384 C45.27127796 8.34366515 47.6773804 10.79060969 50.20092773 13.29858398 C50.67445679 13.77063043 51.14798584 14.24267687 51.63586426 14.72902775 C52.6326141 15.72205085 53.63052811 16.71390659 54.62951469 17.70467949 C56.21615348 19.27838814 57.7995005 20.85534595 59.38209534 22.43312073 C62.73106528 25.77076494 66.08400527 29.10440293 69.4375 32.4375 C73.35009119 36.32648204 77.26103436 40.21709316 81.16783333 44.11189461 C82.7302623 45.66782811 84.2956614 47.22073128 85.8611908 48.77354431 C86.80921769 49.71794242 87.75710656 50.6624791 88.70483398 51.60717773 C89.53643539 52.43354233 90.3680368 53.25990692 91.22483826 54.11131287 C93 56 93 56 93 57 C61.80871988 61.74316676 61.80871988 61.74316676 49.66221428 53.30382729 C41.39790761 46.83801814 34.4025029 38.95880254 27.49993896 31.09881592 C24.44032275 27.66126833 21.26449165 24.33446678 18.09960938 20.99414062 C13.52341174 16.13436397 8.99410632 11.23831107 4.5534668 6.25415039 C4.0879541 5.73410431 3.62244141 5.21405823 3.14282227 4.67825317 C0 1.12278797 0 1.12278797 0 0 Z " fill="#D23C69" transform="translate(65,173)"/>
<path d="M0 0 C31.27614346 -4.65827407 31.27614346 -4.65827407 43.27157784 3.62996483 C51.40150127 9.96549021 58.26668072 17.70927054 65.03649902 25.43762207 C68.03567814 28.81486803 71.15125364 32.08130425 74.25585938 35.36132812 C92 54.22633337 92 54.22633337 92 56 C60.72385654 60.65827407 60.72385654 60.65827407 48.72842216 52.37003517 C40.59849873 46.03450979 33.73331928 38.29072946 26.96350098 30.56237793 C23.96432186 27.18513197 20.84874636 23.91869575 17.74414062 20.63867188 C0 1.77366663 0 1.77366663 0 0 Z " fill="#FEDB64" transform="translate(329,174)"/>
<path d="M0 0 C31.27614346 -4.65827407 31.27614346 -4.65827407 43.27157784 3.62996483 C51.40150127 9.96549021 58.26668072 17.70927054 65.03649902 25.43762207 C68.03567814 28.81486803 71.15125364 32.08130425 74.25585938 35.36132812 C92 54.22633337 92 54.22633337 92 56 C60.72385654 60.65827407 60.72385654 60.65827407 48.72842216 52.37003517 C40.59849873 46.03450979 33.73331928 38.29072946 26.96350098 30.56237793 C23.96432186 27.18513197 20.84874636 23.91869575 17.74414062 20.63867188 C0 1.77366663 0 1.77366663 0 0 Z " fill="#FEDB64" transform="translate(254,174)"/>
<path d="M0 0 C0.495 0.99 0.495 0.99 1 2 C-0.02539062 4.20117188 -0.02539062 4.20117188 -1.65625 6.96875 C-2.56093018 8.51888794 -2.56093018 8.51888794 -3.48388672 10.1003418 C-4.1492041 11.222229 -4.81452148 12.34411621 -5.5 13.5 C-6.18458596 14.66723853 -6.86833112 15.83497057 -7.55126953 17.00317383 C-8.97796019 19.44230038 -10.40831156 21.87922786 -11.84082031 24.31494141 C-14.5807333 28.98152383 -17.27374598 33.67460307 -19.96801758 38.36767578 C-22.96557057 43.58605058 -25.98221208 48.79330991 -29 54 C-29.4935498 54.8544873 -29.98709961 55.70897461 -30.49560547 56.58935547 C-31.75986058 58.77274244 -33.03376025 60.95007458 -34.3125 63.125 C-34.66747559 63.74076904 -35.02245117 64.35653809 -35.38818359 64.9909668 C-36.2026076 66.36227412 -37.0929437 67.68812382 -38 69 C-38.66 69 -39.32 69 -40 69 C-41.55523104 63.30932902 -43.10324337 57.61676046 -44.64477539 51.92236328 C-45.16951706 49.98791371 -45.69618229 48.05398481 -46.22485352 46.12060547 C-46.98707718 43.33177205 -47.74222419 40.54110168 -48.49609375 37.75 C-48.73154404 36.89446533 -48.96699432 36.03893066 -49.20957947 35.1574707 C-52.7812151 21.8502463 -52.7812151 21.8502463 -50.8125 17.1875 C-47.81371841 13.56828083 -44.94876002 11.74223225 -40.41503906 10.55786133 C-39.51440735 10.3178389 -38.61377563 10.07781647 -37.68585205 9.83052063 C-36.24033966 9.46001839 -36.24033966 9.46001839 -34.765625 9.08203125 C-33.77246277 8.81992355 -32.77930054 8.55781586 -31.75604248 8.2877655 C-28.58952354 7.45416543 -25.41988605 6.63319258 -22.25 5.8125 C-20.10004274 5.24887655 -17.95030029 4.68443303 -15.80078125 4.11914062 C-10.53630793 2.73657497 -5.26921994 1.36435672 0 0 Z " fill="#D23D68" transform="translate(66,104)"/>
<path d="M0 0 C4.37216564 3.76451642 6.091492 7.1556442 7.421875 12.64453125 C7.61219299 13.37314865 7.80251099 14.10176605 7.99859619 14.85246277 C8.39628817 16.38761252 8.78578473 17.92490633 9.16748047 19.46411133 C9.74670648 21.79922239 10.34941896 24.12720965 10.95703125 26.45507812 C11.34253539 27.9553728 11.72669407 29.45601397 12.109375 30.95703125 C12.37340118 31.98713066 12.37340118 31.98713066 12.64276123 33.03804016 C15.67442579 45.31393553 15.67442579 45.31393553 13.875 49.8125 C9.56700221 54.83849742 3.84071387 56.09721458 -2.31640625 57.734375 C-3.20988266 57.97665833 -4.10335907 58.21894165 -5.02391052 58.46856689 C-6.90642042 58.97656713 -8.78999952 59.48061969 -10.67456055 59.98095703 C-13.55946205 60.74919101 -16.43889131 61.5358953 -19.31835938 62.32421875 C-21.15074043 62.81622744 -22.98341344 63.30715033 -24.81640625 63.796875 C-25.67690079 64.03323669 -26.53739532 64.26959839 -27.42396545 64.51312256 C-28.2283757 64.72374329 -29.03278595 64.93436401 -29.86157227 65.15136719 C-30.56596939 65.339953 -31.27036652 65.52853882 -31.99610901 65.72283936 C-34.26566589 66.03674458 -35.83184018 65.6885918 -38 65 C-29.68257672 50.18001603 -21.23377274 35.44346269 -12.63378906 20.78564453 C-11.06299085 18.10740071 -9.49590005 15.4270211 -7.9296875 12.74609375 C-7.01579846 11.18479429 -6.10174705 9.62358985 -5.1875 8.0625 C-4.77282471 7.3523877 -4.35814941 6.64227539 -3.9309082 5.91064453 C-1.11505498 1.11505498 -1.11505498 1.11505498 0 0 Z " fill="#D23C68" transform="translate(465,1)"/>
<path d="M0 0 C-1.7342733 4.97357688 -4.43327957 9.31498953 -7.125 13.8125 C-7.59292969 14.60076172 -8.06085937 15.38902344 -8.54296875 16.20117188 C-9.69215397 18.13602454 -10.84457003 20.06887228 -12 22 C-12.66 21.67 -13.32 21.34 -14 21 C-14.73828125 18.453125 -14.73828125 18.453125 -15.3125 15.25 C-15.51488281 14.20328125 -15.71726562 13.1565625 -15.92578125 12.078125 C-16.01444442 8.4009368 -15.18370962 6.90479406 -13 4 C-8.82912704 0.35048616 -5.45296203 -0.12117693 0 0 Z " fill="#FBCF64" transform="translate(30,115)"/>
<path d="M0 0 C11.76005866 -0.55607983 11.76005866 -0.55607983 16 3 C18 5 18 5 18.1953125 8.2578125 C18.17210937 9.53398437 18.14890625 10.81015625 18.125 12.125 C18.10695313 13.40632812 18.08890625 14.68765625 18.0703125 16.0078125 C18.04710937 16.99523437 18.02390625 17.98265625 18 19 C13.47865782 15.28245198 9.22584239 11.35952636 5.0625 7.25 C4.31746216 6.5242981 4.31746216 6.5242981 3.55737305 5.78393555 C2.33152671 4.56151636 1.16065173 3.28448257 0 2 C0 1.34 0 0.68 0 0 Z " fill="#FBCD64" transform="translate(479,173)"/>
</svg>
